#tb 0: 1001/30000
#media_type 0: video
#codec_id 0: rawvideo
#dimensions 0: 416x240
#sar 0: 0/1
0,          0,          0,        1,   149760, 0x83261e41
0,          1,          1,        1,   149760, 0xa8c02e8e
0,          2,          2,        1,   149760, 0xb89d1fa0
0,          3,          3,        1,   149760, 0x22f83f2a
0,          4,          4,        1,   149760, 0x0529e619
0,          5,          5,        1,   149760, 0x18488682
0,          6,          6,        1,   149760, 0x91c0fde2
0,          7,          7,        1,   149760, 0xe07355aa
0,          8,          8,        1,   149760, 0x6deca92f
0,          9,          9,        1,   149760, 0xcd16e610
0,         10,         10,        1,   149760, 0x3fd6cab8
0,         11,         11,        1,   149760, 0x063e39e4
0,         12,         12,        1,   149760, 0x8b1fb242
0,         13,         13,        1,   149760, 0x00ef6987
0,         14,         14,        1,   149760, 0xdfa7e8ab
0,         15,         15,        1,   149760, 0x315a23a8
0,         16,         16,        1,   149760, 0xdd655173
0,         17,         17,        1,   149760, 0x741b9603
0,         18,         18,        1,   149760, 0x4a3c29a4
0,         19,         19,        1,   149760, 0xb14b06f4
0,         20,         20,        1,   149760, 0x5dd7fa14
0,         21,         21,        1,   149760, 0x60dac9fe
0,         22,         22,        1,   149760, 0x231effa8
0,         23,         23,        1,   149760, 0x6b0cca33
0,         24,         24,        1,   149760, 0xb1fc6596
0,         25,         25,        1,   149760, 0x683fa8b5
0,         26,         26,        1,   149760, 0xa9da45be
0,         27,         27,        1,   149760, 0x96d69624
0,         28,         28,        1,   149760, 0xff9e0778
0,         29,         29,        1,   149760, 0x7410078e
0,         30,         30,        1,   149760, 0x6418b280
0,         31,         31,        1,   149760, 0xee66b0dd
0,         32,         32,        1,   149760, 0xdf4d06fb
0,         33,         33,        1,   149760, 0xf75c33fd
0,         34,         34,        1,   149760, 0x73e97017
0,         35,         35,        1,   149760, 0xcc8c4e15
0,         36,         36,        1,   149760, 0xa494d7f7
0,         37,         37,        1,   149760, 0x57564b5f
0,         38,         38,        1,   149760, 0x84433b5c
0,         39,         39,        1,   149760, 0x8ec138cf
0,         40,         40,        1,   149760, 0x72a9e2df
0,         41,         41,        1,   149760, 0x69ee26c7
0,         42,         42,        1,   149760, 0x8d85941b
0,         43,         43,        1,   149760, 0xfa9f41a2
0,         44,         44,        1,   149760, 0x2ec9d6df
0,         45,         45,        1,   149760, 0xb9a85b2b
0,         46,         46,        1,   149760, 0xea10c86d
0,         47,         47,        1,   149760, 0x2a2d0c1b
0,         48,         48,        1,   149760, 0xb96395d7
0,         49,         49,        1,   149760, 0xb9abdbde
0,         50,         50,        1,   149760, 0x8aff19ae
0,         51,         51,        1,   149760, 0xa46d1e0b
0,         52,         52,        1,   149760, 0xb5943391
0,         53,         53,        1,   149760, 0x49aacf5c
0,         54,         54,        1,   149760, 0x837b6b38
0,         55,         55,        1,   149760, 0x1455d41b
0,         56,         56,        1,   149760, 0xf5b87056
0,         57,         57,        1,   149760, 0x15ef5ca7
0,         58,         58,        1,   149760, 0x29edded5
0,         59,         59,        1,   149760, 0x86f1eb45
